<svg width="50" height="18" viewBox="0 0 50 18" fill="none" xmlns="http://www.w3.org/2000/svg">
<path fill-rule="evenodd" clip-rule="evenodd" d="M0 9.16156C0 8.42661 0.13707 7.74868 0.411215 7.12777C0.68536 6.50686 1.0623 5.96832 1.54206 5.51214C2.02181 5.05596 2.57944 4.698 3.21495 4.43823C3.85047 4.17846 4.53582 4.04857 5.27103 4.04857C5.99377 4.04857 6.67601 4.17846 7.31776 4.43823C7.95951 4.698 8.52025 5.05596 9 5.51214C9.47975 5.96832 9.8567 6.50686 10.1308 7.12777C10.405 7.74868 10.5421 8.42661 10.5421 9.16156C10.5421 9.89652 10.405 10.5744 10.1308 11.1954C9.8567 11.8163 9.47975 12.3548 9 12.811C8.52025 13.2672 7.95951 13.6251 7.31776 13.8849C6.67601 14.1447 5.99377 14.2746 5.27103 14.2746C4.53582 14.2746 3.85047 14.1447 3.21495 13.8849C2.57944 13.6251 2.02181 13.2672 1.54206 12.811C1.0623 12.3548 0.68536 11.8163 0.411215 11.1954C0.13707 10.5744 0 9.89652 0 9.16156ZM5.27103 11.5375C5.58256 11.5375 5.87227 11.4773 6.14019 11.3569C6.4081 11.2365 6.64174 11.0718 6.84112 10.8627C7.0405 10.6536 7.19315 10.4034 7.29907 10.1119C7.40498 9.82048 7.45794 9.5037 7.45794 9.16156C7.45794 8.81943 7.40498 8.50264 7.29907 8.21119C7.19315 7.91974 7.0405 7.66948 6.84112 7.4604C6.64174 7.25132 6.4081 7.08659 6.14019 6.96621C5.87227 6.84583 5.58256 6.78564 5.27103 6.78564C4.94704 6.78564 4.65421 6.84583 4.39252 6.96621C4.13084 7.08659 3.90031 7.25132 3.70093 7.4604C3.50156 7.66948 3.34891 7.91974 3.24299 8.21119C3.13707 8.50264 3.08411 8.81943 3.08411 9.16156C3.08411 9.5037 3.13707 9.82048 3.24299 10.1119C3.34891 10.4034 3.50156 10.6536 3.70093 10.8627C3.90031 11.0718 4.13084 11.2365 4.39252 11.3569C4.65421 11.4773 4.94704 11.5375 5.27103 11.5375ZM12.2243 1.34952C12.2243 0.85533 12.3676 0.506865 12.6542 0.304118C12.9408 0.101372 13.3209 0 13.7944 0C14.1308 0 14.4361 0.0411823 14.7103 0.123548C14.9844 0.205914 15.1589 0.259768 15.2336 0.285111V7.54593C15.4579 7.35586 15.6978 7.15628 15.9533 6.9472C16.2087 6.73812 16.4579 6.52904 16.7009 6.31996C16.9439 6.11088 17.1745 5.91447 17.3925 5.73073C17.6106 5.54699 17.7882 5.39176 17.9252 5.26505C18.1122 5.10032 18.2773 4.95776 18.4206 4.83738C18.5639 4.717 18.7134 4.6188 18.8692 4.54277C19.0249 4.46674 19.19 4.40972 19.3645 4.3717C19.5389 4.33369 19.7508 4.31468 20 4.31468C20.2492 4.31468 20.4797 4.35269 20.6916 4.42872C20.9034 4.50475 21.0903 4.59662 21.2523 4.70433C21.4143 4.81204 21.5514 4.92608 21.6636 5.04646C21.7757 5.16684 21.8567 5.27138 21.9065 5.36008C21.6698 5.61352 21.3738 5.89863 21.0187 6.21542C20.6635 6.53221 20.296 6.84583 19.9159 7.15628C19.5358 7.46674 19.1682 7.76452 18.8131 8.04963C18.4579 8.33474 18.1682 8.57233 17.9439 8.76241C18.7165 9.47202 19.4984 10.2862 20.2897 11.2049C21.081 12.1236 21.7944 13.0581 22.4299 14.0084H18.7103C18.4611 13.6663 18.1869 13.3178 17.8879 12.963C17.5888 12.6082 17.2835 12.2661 16.972 11.9366C16.6604 11.6072 16.3551 11.2936 16.0561 10.9958C15.757 10.698 15.4829 10.4224 15.2336 10.169V14.0084H12.2243V1.34952ZM24.5607 15.0539C24.6106 15.0792 24.7196 15.1204 24.8879 15.1774C25.0561 15.2344 25.2648 15.2914 25.514 15.3485C25.7632 15.4055 26.0467 15.4562 26.3645 15.5005C26.6822 15.5449 27.0093 15.5671 27.3458 15.5671C28.3053 15.5671 28.9969 15.358 29.4206 14.9398C29.8442 14.5216 30.0561 13.831 30.0561 12.868C29.8193 13.1595 29.4579 13.3907 28.972 13.5618C28.486 13.7328 28 13.8184 27.514 13.8184C26.9408 13.8184 26.4081 13.7455 25.9159 13.5998C25.4237 13.4541 24.9938 13.2291 24.6262 12.925C24.2586 12.6209 23.972 12.2376 23.7664 11.7751C23.5607 11.3126 23.4579 10.7645 23.4579 10.1309V5.6642C23.4579 5.17001 23.6012 4.82154 23.8879 4.6188C24.1745 4.41605 24.5545 4.31468 25.028 4.31468C25.3645 4.31468 25.6698 4.35586 25.9439 4.43823C26.2181 4.52059 26.3925 4.57445 26.4673 4.59979V9.5037C26.4673 10.1119 26.6075 10.5491 26.8879 10.8152C27.1682 11.0813 27.6075 11.2144 28.2056 11.2144C28.7664 11.2144 29.2025 11.0496 29.514 10.7202C29.8255 10.3907 29.9813 9.88385 29.9813 9.19958V5.6642C29.9813 5.17001 30.1246 4.82154 30.4112 4.6188C30.6978 4.41605 31.0779 4.31468 31.5514 4.31468C31.8879 4.31468 32.1931 4.35586 32.4673 4.43823C32.7414 4.52059 32.9159 4.57445 32.9907 4.59979V12.6589C32.9907 13.622 32.866 14.4424 32.6168 15.1204C32.3676 15.7983 32.0125 16.3495 31.5514 16.774C31.0903 17.1985 30.5421 17.509 29.9065 17.7054C29.271 17.9018 28.5608 18 27.7757 18C27.2274 18 26.7227 17.9683 26.2617 17.905C25.8006 17.8416 25.3956 17.7687 25.0467 17.6864C24.6978 17.604 24.4174 17.5248 24.2056 17.4488C23.9938 17.3728 23.8692 17.3221 23.8318 17.2967L24.5607 15.0539ZM34.6729 9.16156C34.6729 8.42661 34.81 7.74868 35.0841 7.12777C35.3583 6.50686 35.7352 5.96832 36.215 5.51214C36.6947 5.05596 37.2523 4.698 37.8879 4.43823C38.5234 4.17846 39.2087 4.04857 39.9439 4.04857C40.6667 4.04857 41.3489 4.17846 41.9907 4.43823C42.6324 4.698 43.1931 5.05596 43.6729 5.51214C44.1526 5.96832 44.5296 6.50686 44.8037 7.12777C45.0779 7.74868 45.215 8.42661 45.215 9.16156C45.215 9.89652 45.0779 10.5744 44.8037 11.1954C44.5296 11.8163 44.1526 12.3548 43.6729 12.811C43.1931 13.2672 42.6324 13.6251 41.9907 13.8849C41.3489 14.1447 40.6667 14.2746 39.9439 14.2746C39.2087 14.2746 38.5234 14.1447 37.8879 13.8849C37.2523 13.6251 36.6947 13.2672 36.215 12.811C35.7352 12.3548 35.3583 11.8163 35.0841 11.1954C34.81 10.5744 34.6729 9.89652 34.6729 9.16156ZM39.9439 11.5375C40.2555 11.5375 40.5452 11.4773 40.8131 11.3569C41.081 11.2365 41.3146 11.0718 41.514 10.8627C41.7134 10.6536 41.866 10.4034 41.972 10.1119C42.0779 9.82048 42.1308 9.5037 42.1308 9.16156C42.1308 8.81943 42.0779 8.50264 41.972 8.21119C41.866 7.91974 41.7134 7.66948 41.514 7.4604C41.3146 7.25132 41.081 7.08659 40.8131 6.96621C40.5452 6.84583 40.2555 6.78564 39.9439 6.78564C39.6199 6.78564 39.3271 6.84583 39.0654 6.96621C38.8037 7.08659 38.5732 7.25132 38.3738 7.4604C38.1745 7.66948 38.0218 7.91974 37.9159 8.21119C37.81 8.50264 37.757 8.81943 37.757 9.16156C37.757 9.5037 37.81 9.82048 37.9159 10.1119C38.0218 10.4034 38.1745 10.6536 38.3738 10.8627C38.5732 11.0718 38.8037 11.2365 39.0654 11.3569C39.3271 11.4773 39.6199 11.5375 39.9439 11.5375ZM46.9907 1.34952C46.9907 0.85533 47.134 0.506865 47.4206 0.304118C47.7072 0.101372 48.0872 0 48.5607 0C48.8972 0 49.2025 0.0411823 49.4766 0.123548C49.7508 0.205914 49.9252 0.259768 50 0.285111V14.0084H46.9907V1.34952Z" fill="#333A4A"/>
</svg>
