<svg width="25" height="25" viewBox="0 0 25 25" fill="none" xmlns="http://www.w3.org/2000/svg">
<path fill-rule="evenodd" clip-rule="evenodd" d="M7.325 0H17.675L25 7.325V17.675L17.675 25H7.325L0 17.675V7.325L7.325 0Z" fill="#E92E45"/>
<path fill-rule="evenodd" clip-rule="evenodd" d="M12.5 6.5C13.0523 6.5 13.5 6.94772 13.5 7.5V12.5C13.5 13.0523 13.0523 13.5 12.5 13.5C11.9477 13.5 11.5 13.0523 11.5 12.5V7.5C11.5 6.94772 11.9477 6.5 12.5 6.5Z" fill="white"/>
<path fill-rule="evenodd" clip-rule="evenodd" d="M12.5 16C13.0523 16 13.5 16.1919 13.5 16.4286V18.5714C13.5 18.8081 13.0523 19 12.5 19C11.9477 19 11.5 18.8081 11.5 18.5714V16.4286C11.5 16.1919 11.9477 16 12.5 16Z" fill="white"/>
</svg>
